# xmcd
#
# Track frame offsets:
#	150
#	21510
#	37220
#	47965
#	61802
#	74352
#	87100
#	98532
#	107807
#	119400
#	129325
#	153910
#	169397
#	186277
#	201507
#	212980
#	223000
#	240705
#
# Disc length: 3355 seconds
#
# Revision: 4
# Processed by: cddbd v1.5.1PL0 Copyright (c) Steve Scherf et al.
# Submitted via: MusicWizard 7.0.2
#
DISCID=120d1912
DTITLE=Sonny Terry And Brownie Mc Ghee - 1958 London Sessions
DYEAR=1900
DGENRE=Blues
TTITLE0=Just A Dream
TTITLE1=I've Been Treated Wrong
TTITLE2=Woman's Lover Blues
TTITLE3=Climbing On Top Of The Hill
TTITLE4=Southern Train
TTITLE5=Black Horse Blues
TTITLE6=Gone But Not Forgotten
TTITLE7=I Love You Baby
TTITLE8=Cornbread, Peas and Black Molasses
TTITLE9=You'd Better Mind
TTITLE10=Brownie Blues
TTITLE11=Change The Lock On My Door
TTITLE12=Auto Mechanic Blues
TTITLE13=Sonny's Blues
TTITLE14=Wholesale and Retail
TTITLE15=Fox Chase
TTITLE16=The Way I Feel
TTITLE17=Hooray (This Woman Is Killing Me)
EXTD=
EXTT0=
EXTT1=
EXTT2=
EXTT3=
EXTT4=
EXTT5=
EXTT6=
EXTT7=
EXTT8=
EXTT9=
EXTT10=
EXTT11=
EXTT12=
EXTT13=
EXTT14=
EXTT15=
EXTT16=
EXTT17=
PLAYORDER=
